<svg width="232" height="233" viewBox="0 0 232 233" fill="none" xmlns="http://www.w3.org/2000/svg">
<rect x="50" y="26" width="133" height="183" fill="#82CB4E"/>
<path d="M95.0613 1.71768C64.7183 7.46369 36.3914 26.1131 19.6574 51.2141C5.94763 71.8796 0 91.8394 0 116.94C0 167.344 31.4519 211.095 79.1338 227.022C94.2549 232.062 104.436 233.474 119.961 232.869C137.904 232.163 150.909 228.937 165.929 221.578C218.248 196.074 243.651 137.203 226.212 81.9603C214.014 43.1495 183.671 14.2178 143.65 3.33059C133.267 0.507987 106.251 -0.399279 95.0613 1.71768ZM125.102 29.6413C134.679 37.2019 150.203 59.5811 160.284 80.4482C170.062 100.509 169.961 99.904 161.594 95.5693C146.574 87.908 131.15 88.412 118.348 97.0814C115.828 98.6943 113.711 100.106 113.509 100.106C113.307 100.106 113.811 97.7871 114.517 95.0653C116.836 85.9926 120.062 55.7504 118.65 55.7504C117.441 55.7504 110.082 81.7587 107.864 94.0572C106.251 103.029 103.932 125.61 104.436 126.517C105.545 128.231 103.63 127.122 97.2791 122.283C90.021 116.84 79.9402 111.194 81.2507 113.412C81.6539 114.118 85.9887 119.965 90.8274 126.316C100.807 139.723 103.025 143.654 105.243 152.223C109.779 169.663 119.86 194.461 126.009 203.433L129.134 208.07L119.86 207.768C111.493 207.465 110.586 207.264 110.384 205.449C110.182 204.34 109.779 200.409 109.477 196.78C109.174 193.05 108.166 187.808 107.36 184.985L105.747 179.844L94.5573 174.098C68.7506 160.892 56.2505 146.376 53.4279 126.517C50.6053 106.053 60.182 84.9845 83.4685 60.5892C94.9605 48.5931 118.751 26.5163 120.162 26.5163C120.767 26.5163 122.884 27.9276 125.102 29.6413ZM136.292 105.146C138.408 105.751 141.433 107.364 143.046 108.674L145.969 111.194L150.707 109.077C159.679 105.146 168.247 106.658 173.691 113.211C178.832 119.259 178.328 129.037 172.179 141.437C166.635 152.828 155.445 162.606 135.687 173.191C125.505 178.735 126.513 179.239 121.876 166.638C115.928 150.207 113.509 139.622 113.509 129.844C113.509 119.662 114.82 114.622 118.751 109.985C123.287 104.642 128.832 103.13 136.292 105.146Z" fill="#0F6220"/>
</svg>
