<svg width="1154" height="309" viewBox="0 0 1154 309" fill="none" xmlns="http://www.w3.org/2000/svg">
<rect x="70" y="30" width="173" height="246" rx="16" fill="#82CB4E"/>
<path d="M125.733 2.19997C85.6 9.79997 48.1333 34.4666 26 67.6666C7.86667 95 0 121.4 0 154.6C0 221.267 41.6 279.133 104.667 300.2C124.667 306.867 138.133 308.733 158.667 307.933C182.4 307 199.6 302.733 219.467 293C288.667 259.267 322.267 181.4 299.2 108.333C283.067 57 242.933 18.7333 190 4.3333C176.267 0.599968 140.533 -0.600032 125.733 2.19997ZM165.467 39.1333C178.133 49.1333 198.667 78.7333 212 106.333C224.933 132.867 224.8 132.067 213.733 126.333C193.867 116.2 173.467 116.867 156.533 128.333C153.2 130.467 150.4 132.333 150.133 132.333C149.867 132.333 150.533 129.267 151.467 125.667C154.533 113.667 158.8 73.6666 156.933 73.6666C155.333 73.6666 145.6 108.067 142.667 124.333C140.533 136.2 137.467 166.067 138.133 167.267C139.6 169.533 137.067 168.067 128.667 161.667C119.067 154.467 105.733 147 107.467 149.933C108 150.867 113.733 158.6 120.133 167C133.333 184.733 136.267 189.933 139.2 201.267C145.2 224.333 158.533 257.133 166.667 269L170.8 275.133L158.533 274.733C147.467 274.333 146.267 274.067 146 271.667C145.733 270.2 145.2 265 144.8 260.2C144.4 255.267 143.067 248.333 142 244.6L139.867 237.8L125.067 230.2C90.9333 212.733 74.4 193.533 70.6667 167.267C66.9333 140.2 79.6 112.333 110.4 80.0666C125.6 64.2 157.067 35 158.933 35C159.733 35 162.533 36.8666 165.467 39.1333ZM180.267 139C183.067 139.8 187.067 141.933 189.2 143.667L193.067 147L199.333 144.2C211.2 139 222.533 141 229.733 149.667C236.533 157.667 235.867 170.6 227.733 187C220.4 202.067 205.6 215 179.467 229C166 236.333 167.333 237 161.2 220.333C153.333 198.6 150.133 184.6 150.133 171.667C150.133 158.2 151.867 151.533 157.067 145.4C163.067 138.333 170.4 136.333 180.267 139Z" fill="#0F6220"/>
<path d="M744.667 77.2667C740.267 78.3334 734.933 84.3334 734.133 89.1334C732.533 97.4 739.2 105.667 747.6 105.667C757.067 105.667 763.2 100.067 763.2 91.5334C763.2 85.5334 760.4 80.8667 755.333 78.3334C750.8 76.3334 749.467 76.2 744.667 77.2667Z" fill="#0F621F"/>
<path d="M864.933 80.3333C857.467 86.2 859.6 99.9333 868.533 103.667C878.4 107.8 888 101.8 888 91.4C888 86.6 887.2 84.7333 884.133 81.5333C879.2 76.6 870.267 76.0667 864.933 80.3333Z" fill="#0F621F"/>
<path d="M420 104.333C420 118.2 419.733 129.667 419.467 129.667C419.2 129.667 416.933 127.667 414.4 125.267C401.2 112.867 377.467 115.933 367.067 131.533C360.933 140.467 358.667 149.4 358.667 163.667C358.667 184.067 364.8 198.2 376.933 205.267C382.267 208.333 384.8 209 392.667 209C404.8 209 408.267 207.933 414.667 202.2L420 197.4V202.867V208.333H432H444V143.667V79H432H420V104.333ZM412.933 141.133C418.667 144.733 420.667 150.733 420.667 163.667C420.667 179.133 418.133 184.867 409.6 188.6C402.667 191.667 396.533 191.267 390.8 187.133C380.667 179.933 379.733 154.333 389.067 143.8C394.533 137.667 405.867 136.333 412.933 141.133Z" fill="#0F621F"/>
<path d="M1054.67 93C1049.87 93.9334 1045.6 94.7334 1045.07 94.8667C1044.4 95 1044 100.333 1044 107V119H1036H1028V129V139H1036H1044V161C1044 185.667 1045.47 194.6 1050.27 200.467C1054.4 205.267 1057.73 207.133 1064.67 208.467C1070.4 209.533 1090.4 207.8 1092.27 205.933C1092.8 205.4 1092.53 201.267 1091.73 196.733L1090.27 188.467L1081.87 188.733C1068.8 189.133 1068.8 188.867 1068.27 161.667L1067.87 139H1079.87H1092V129V119H1080H1068V105C1068 89.1334 1069.33 90.2 1054.67 93Z" fill="#0F621F"/>
<path d="M480.667 119.933C476.133 121.533 471.6 124.6 466.4 129.667C460 136.2 458.4 138.733 455.867 147C453.467 154.867 453.067 158.733 453.6 168.333C454.267 178.6 454.933 181.267 458.933 188.6C467.2 203.667 480.667 210.6 499.467 209.4C524.267 207.8 538.667 191.4 538.667 164.467C538.667 143.667 531.467 129.933 516.933 122.467C507.067 117.4 491.2 116.333 480.667 119.933ZM507.6 141.8C513.467 147.4 515.067 152.2 515.2 163.667C515.333 172.6 514.8 175.267 512.133 179.933C508.533 186.2 502.667 189.667 495.733 189.667C475.867 189.667 469.867 152.733 488 140.6C494 136.6 502.533 137.133 507.6 141.8Z" fill="#0F621F"/>
<path d="M571.2 119.8C557.867 124.467 548.933 137.4 546.8 155.133C544.533 172.733 548.267 188.6 557.2 198.067C568.133 209.933 590.4 211.667 601.867 201.667C604.267 199.4 606.8 197.667 607.333 197.667C609.2 197.667 607.067 216.2 604.8 219.667C601.733 224.333 597.067 227.133 590.667 227.933C583.733 228.867 574.4 225.4 572 220.867C570.133 217.533 570 217.533 559.467 218.467C553.467 218.867 548.267 219.533 547.733 219.8C545.867 220.867 550.133 230.2 554.933 235.533C562.8 244.6 571.067 247.533 588 247.667C599.867 247.667 603.067 247.133 608.8 244.6C617.2 240.733 624.267 233.667 628.267 225C631.2 218.467 631.333 217.267 631.733 168.6L632.133 119H620.133H608V124.333C608 129.667 606.267 131.4 604.8 127.667C604.4 126.6 601.2 123.8 597.733 121.667C592.667 118.467 590.133 117.667 584.133 117.8C580 117.8 574.133 118.733 571.2 119.8ZM598.133 139.8C600.667 141 603.733 143.933 604.933 146.2C607.733 151.4 608.8 168.6 606.8 175.667C602.4 192.067 580.533 194.6 572.8 179.667C568.933 172.333 568.933 156.6 572.667 149C577.733 138.867 588.267 135.133 598.133 139.8Z" fill="#0F621F"/>
<path d="M667.333 119.533C658.8 122.2 653.733 125.4 650.267 129.933C647.333 133.933 644 141.667 644 144.467C644 145.133 649.2 145.667 655.733 145.667C667.333 145.667 667.333 145.667 669.067 141.8C672.8 133.267 688.133 131.133 694.267 138.333C698.267 142.867 698.267 149 694.4 151.533C692.667 152.6 684.933 154.733 677.067 156.2C654 160.467 645.867 165.667 642.533 177.933C639.333 189.8 644.267 201.4 654.667 206.6C665.733 212.2 686.267 209.933 694.8 202.2C696.8 200.467 697.067 200.6 697.733 204.333L698.667 208.333H710.267H722L721.733 197.933C721.467 192.333 721.2 177.133 720.933 164.333C720.4 138.067 719.067 132.6 711.2 125.8C708.8 123.533 703.6 120.867 699.733 119.667C691.467 117.267 674.8 117.133 667.333 119.533ZM695.067 183.933C691.333 191.4 686.4 194.333 677.733 194.333C671.6 194.333 670 193.8 667.867 191.133C664.267 186.733 664.533 179.667 668.533 175.667C671.6 172.6 674 171.8 689.333 168.067L696.667 166.333L697.067 172.733C697.333 177 696.667 180.867 695.067 183.933Z" fill="#0F621F"/>
<path d="M798.267 119.933C784.933 124.467 775.067 137.133 772 153.8C767.867 176.6 777.2 198.333 794.4 206.067C802.933 209.8 817.467 210.6 826.933 207.8C839.2 204.333 850 192.867 852.667 180.6L853.6 176.333H841.6H829.6L828 180.467C823.2 191.933 805.867 192.467 799.333 181.4C796.267 176.067 795.067 159.4 797.2 151.4C798.933 144.867 804.8 139.533 811.2 138.333C817.6 137.133 825.2 140.6 827.067 145.667L828.533 149.667H840.8H853.067L852.133 145.267C849.6 134.2 839.467 123.667 827.867 119.933C819.333 117.133 806.667 117.133 798.267 119.933Z" fill="#0F621F"/>
<path d="M938.8 119.4C936.4 120.2 932.267 122.733 929.867 125C927.333 127.4 925.333 129 925.2 128.467C925.2 128.067 924.933 125.8 924.933 123.667L924.667 119.667H912.667H900.8V163.667L900.667 207.667H912.667H924.667L925.333 177.667C925.733 156.867 926.533 146.733 927.733 144.733C931.6 137.8 944.667 135.4 951.067 140.333C956 144.333 957.333 152.867 957.333 182.333V208.333H969.467H981.6L981.067 175.267C980.667 144.067 980.4 141.933 977.467 135.267C972 123.267 962.8 117.533 949.333 117.8C946 117.933 941.333 118.6 938.8 119.4Z" fill="#0F621F"/>
<path d="M1146.67 118.867C1139.33 119.933 1135.87 121.8 1131.6 127C1129.73 129.133 1127.87 131 1127.47 131C1127.07 131 1126.67 128.333 1126.67 125V119H1115.33H1104V163.667V208.333H1116H1128V182.6C1128 160.067 1128.4 156.333 1130.67 151.267C1133.6 144.867 1141.07 140.467 1149.07 140.333H1153.33V129C1153.33 122.733 1153.2 117.8 1153.07 117.8C1152.8 117.933 1150 118.467 1146.67 118.867Z" fill="#0F621F"/>
<path d="M736.667 120.6C736.267 121.533 736.133 141.533 736.267 165L736.667 207.667H748.667H760.667V163.667V119.667L748.933 119.267C740.4 119 737.067 119.4 736.667 120.6Z" fill="#0F621F"/>
<path d="M862.667 163.667V208.333H874.667H886.667V163.667V119H874.667H862.667V163.667Z" fill="#0F621F"/>
<path d="M1001.73 183C993.6 187.933 992.8 201 1000.53 206.333C1004.53 209.267 1014.93 208.867 1018.93 205.667C1024 201.667 1026 195.933 1024 191C1020 181.4 1010.13 177.8 1001.73 183Z" fill="#0F621F"/>
</svg>
